<svg xmlns="http://www.w3.org/2000/svg" height="512" viewBox="-87 0 479 479.849" width="512"><path d="M232.113 225.184c.176-5.735.313-11.504.313-17.336 0-112-70.762-201.27-73.77-205.016A8.267 8.267 0 0 0 152.426 0a8.27 8.27 0 0 0-6.235 2.832c-3.015 3.746-73.765 93.016-73.765 205.016 0 5.832.133 11.601.308 17.336C30.52 243.594.426 310.793.426 388.945v2.825a8 8 0 0 0 8 8 7.996 7.996 0 0 0 6.855-3.883 161.671 161.671 0 0 1 72.16-65.16c2.293 8.378 4.801 16.457 7.567 23.93 0 .054.074.097.097.16.11.218.227.433.36.64a7.9 7.9 0 0 0 1.168 1.734c.21.223.437.43.672.625a8.04 8.04 0 0 0 1.597 1.082c.274.133.532.278.801.391a8.14 8.14 0 0 0 2.793.559H202.52a10.538 10.538 0 0 0 5.554-2.399 9.98 9.98 0 0 0 .672-.992 8.504 8.504 0 0 0 1.008-1.602c0-.054.062-.085.086-.136 2.793-7.469 5.273-15.551 7.57-23.926a161.66 161.66 0 0 1 72.156 65.16 8.01 8.01 0 0 0 6.86 3.817 8.003 8.003 0 0 0 8-8v-2.825c0-78.16-30.098-145.351-72.313-163.761zm-123.87 118.664a252.996 252.996 0 0 1-4.97-16h98.313a269.22 269.22 0 0 1-4.977 16zm44.183-322.496c17.191 24.527 64 99.296 64 186.496a484.45 484.45 0 0 1-10.832 104H99.258a484.203 484.203 0 0 1-10.832-104c0-87.2 46.804-161.97 64-186.496zM17.44 365.055c4.88-57.157 26.942-105.414 56.125-122.399a461.753 461.753 0 0 0 9.938 72.313 172.89 172.89 0 0 0-66.063 50.086zm203.903-50.094a462.875 462.875 0 0 0 9.937-72.328c29.184 17 51.246 65.265 56.13 122.398a172.786 172.786 0 0 0-66.067-50.07zm0 0" fill="#f8f9fa"/><path d="M152.426 215.848c22.09 0 40-17.907 40-40 0-22.09-17.91-40-40-40-22.094 0-40 17.91-40 40 .023 22.082 17.918 39.972 40 40zm0-64c13.254 0 24 10.746 24 24s-10.746 24-24 24c-13.258 0-24-10.746-24-24s10.742-24 24-24zm0 224a8 8 0 0 0-8 8v88a8 8 0 0 0 16 0v-88a8 8 0 0 0-8-8zm-38.571.136c-2.082-.394-4.238.059-5.984 1.262s-2.941 3.05-3.32 5.137l-16 88a8.001 8.001 0 0 0 6.441 9.297c.473.101.95.16 1.434.168a7.999 7.999 0 0 0 7.863-6.567l16-88a8 8 0 0 0-6.434-9.297zm77.137 0a7.999 7.999 0 0 0-6.398 9.297l16 88a7.998 7.998 0 0 0 7.832 6.567c.48.004.965-.043 1.437-.137a8 8 0 0 0 6.403-9.293l-16-88a7.949 7.949 0 0 0-3.293-5.152 7.954 7.954 0 0 0-5.98-1.282zm0 0" fill="#f8f9fa"/></svg>