<?xml version="1.0"?>
<svg xmlns="http://www.w3.org/2000/svg" height="512px" viewBox="-87 0 479 479.84856" width="512px"><path d="m232.113281 225.183594c.175781-5.734375.3125-11.503906.3125-17.335938 0-112-70.761719-201.269531-73.769531-205.015625-1.570312-1.800781-3.84375-2.832031-6.230469-2.832031-2.390625 0-4.664062 1.03125-6.234375 2.832031-3.015625 3.746094-73.765625 93.015625-73.765625 205.015625 0 5.832032.132813 11.601563.308594 17.335938-42.214844 18.410156-72.308594 85.609375-72.308594 163.761718v2.824219c-.003906 3.59375 2.398438 6.75 5.863281 7.710938.695313.191406 1.414063.289062 2.136719.289062 2.804688 0 5.410157-1.472656 6.855469-3.882812 16.796875-28.609375 41.988281-51.355469 72.160156-65.160157 2.292969 8.378907 4.800782 16.457032 7.566406 23.929688 0 .054688.074219.097656.097657.160156.109375.21875.226562.433594.359375.640625.3125.628907.703125 1.210938 1.167968 1.734375.210938.222656.4375.429688.671876.625.488281.425782 1.023437.785156 1.597656 1.082032.273437.132812.53125.277343.800781.390624.890625.347657 1.835937.539063 2.792969.558594h99.847656.175781c2.046875-.238281 3.976563-1.074218 5.554688-2.398437.242187-.316407.46875-.648438.671875-.992188.394531-.492187.730468-1.03125 1.007812-1.601562 0-.054688.0625-.085938.085938-.136719 2.792968-7.46875 5.273437-15.550781 7.570312-23.925781 30.167969 13.800781 55.359375 36.550781 72.15625 65.160156 1.464844 2.382813 4.0625 3.828125 6.859375 3.816406.71875.003907 1.4375-.09375 2.132813-.289062 3.46875-.960938 5.867187-4.117188 5.867187-7.710938v-2.824219c0-78.160156-30.097656-145.351562-72.3125-163.761718zm-123.871093 118.664062c-1.773438-5.085937-3.429688-10.421875-4.96875-16h98.3125c-1.554688 5.578125-3.210938 10.914063-4.976563 16zm44.183593-322.496094c17.191407 24.527344 64 99.296876 64 186.496094.152344 34.957032-3.480469 69.828125-10.832031 104h-106.335938c-7.355468-34.171875-10.984374-69.042968-10.832031-104 0-87.199218 46.804688-161.96875 64-186.496094zm-134.984375 343.703126c4.878906-57.15625 26.941406-105.414063 56.125-122.398438 1.398438 24.328125 4.722656 48.507812 9.9375 72.3125-25.757812 11.089844-48.429687 28.28125-66.0625 50.085938zm203.902344-50.09375c5.210938-23.808594 8.535156-47.996094 9.9375-72.328126 29.183594 17 51.246094 65.265626 56.128906 122.398438-17.632812-21.804688-40.308594-38.988281-66.066406-50.070312zm0 0" fill="#f8f9fa"/><path d="m152.425781 215.847656c22.089844 0 40-17.90625 40-40 0-22.089844-17.910156-40-40-40-22.09375 0-40 17.910156-40 40 .023438 22.082032 17.917969 39.972656 40 40zm0-64c13.253907 0 24 10.746094 24 24s-10.746093 24-24 24c-13.257812 0-24-10.746094-24-24s10.742188-24 24-24zm0 0" fill="#f8f9fa"/><path d="m152.425781 375.847656c-4.417969 0-8 3.582032-8 8v88c0 4.417969 3.582031 8 8 8s8-3.582031 8-8v-88c0-4.417968-3.582031-8-8-8zm0 0" fill="#f8f9fa"/><path d="m113.855469 375.984375c-2.082031-.394531-4.238281.058594-5.984375 1.261719s-2.941406 3.050781-3.320313 5.136718l-16 88c-.785156 4.347657 2.097657 8.507813 6.441407 9.296876.472656.101562.949218.160156 1.433593.167968 3.863281-.003906 7.171875-2.765625 7.863281-6.566406l16-88c.785157-4.34375-2.089843-8.503906-6.433593-9.296875zm0 0" fill="#f8f9fa"/><path d="m190.992188 375.984375c-4.328126.808594-7.1875 4.964844-6.398438 9.296875l16 88c.6875 3.789062 3.980469 6.546875 7.832031 6.566406.480469.003906.964844-.042968 1.4375-.136718 4.328125-.808594 7.1875-4.960938 6.402344-9.292969l-16-88c-.367187-2.089844-1.554687-3.945313-3.292969-5.152344-1.742187-1.207031-3.894531-1.667969-5.980468-1.28125zm0 0" fill="#f8f9fa"/></svg>
